<svg width="140" height="217" viewBox="0 0 140 217" fill="none" xmlns="http://www.w3.org/2000/svg">
<path opacity="0.2" d="M115.037 52.8614C111.325 46.4508 104.045 42.5921 101.914 35.9081C101.302 33.9534 101.235 31.9547 100.53 30.0134C98.7541 25.0961 93.7634 22.4401 89.4634 20.2361C81.6167 16.1734 74.3301 10.9561 66.9007 6.82143C59.4754 2.70143 51.6287 -0.341248 43.426 0.652084C35.2034 1.57208 26.6074 7.37608 21.5874 16.2188C16.5754 25.1174 16.03 36.0374 21.586 39.6761C16.8887 41.6961 12.1821 44.1787 8.13806 48.5067C4.08739 52.8347 0.783392 59.3454 0.908725 64.1601C1.07139 71.1681 8.19404 71.5414 14.9207 69.8094C21.6007 67.9667 29.0047 64.6147 35.3701 66.7081C32.2687 66.9227 29.0274 69.4067 27.3127 72.7134C25.5981 76.0254 25.47 79.9494 26.986 82.5041C23.7127 82.5187 20.4021 82.6908 17.1461 84.1894C13.8861 85.6814 10.6394 88.7588 9.16472 92.5228C7.69272 96.2934 8.61406 100.444 11.5741 100.815C6.92472 101.311 2.26739 107.809 1.74339 113.097C1.21939 118.401 4.19938 122.224 8.39938 123.369C12.5914 124.488 17.7394 123.239 22.4981 120.905C27.2527 118.575 31.71 115.197 36.1594 111.941C32.0594 118.136 34.9167 127.416 41.1554 128.556C36.0834 129.732 30.9461 131.156 26.4394 134.356C21.9301 137.559 18.0861 142.835 17.5354 148.356C16.7127 156.527 23.1981 162.268 30.0434 164.935C36.8754 167.541 44.618 168.276 50.9527 172.668C41.7874 171.865 34.094 183.636 35.3207 193.695C36.5407 203.791 44.4474 211.657 53.1247 214.744C61.8047 217.807 71.1487 216.748 80.0967 214.969C84.5647 214.085 89.3874 212.776 92.2047 208.745C94.8221 205.004 95.0314 199.66 93.7781 195.035C92.5261 190.412 90.0047 186.331 87.5101 182.333C95.6007 180.984 102.574 174.228 104.609 165.605C106.639 157.005 103.359 137.792 96.8594 131.208C108.378 136.872 111.03 137.211 121.87 135.513C128.278 134.669 129.049 127.541 134.399 125.24C137.111 124.084 140.053 122.551 139.65 118.808C139.103 113.509 133.053 109.672 129.025 105.32C125.486 101.4 130.995 96.6454 129.134 91.8908C127.223 87.0508 123.059 78.5881 114.006 76.3801C111.202 67.0161 121.949 64.5228 115.037 52.8614Z" fill="#D7D5D5"/>
</svg>
