<svg width="111" height="233" viewBox="0 0 111 233" fill="none" xmlns="http://www.w3.org/2000/svg">
<path opacity="0.2" d="M88.3015 177.876C87.1508 169.832 80.5975 163.486 73.5615 160.874C66.5308 158.252 58.9722 158.615 51.6242 158.666C44.2708 158.708 36.6455 158.296 30.7682 154.543C26.5135 151.807 23.3722 146.207 25.8069 140.727C27.2682 137.436 30.2802 135.236 32.8988 132.876C40.1615 126.326 45.2349 116.659 46.1749 106.82C49.0629 108.203 52.7269 107.214 55.7762 105.535C58.8255 103.855 61.5375 101.503 64.6028 99.9602C71.9268 96.2642 80.3535 97.7282 88.2762 98.5415C96.2228 99.2815 104.939 98.9789 108.747 92.9122C112.022 87.6922 110.562 78.9949 106.46 72.0069C102.357 65.0509 96.0002 59.8922 89.3868 56.6535C84.4242 54.1989 79.2068 52.6589 74.3322 50.2842C69.4575 47.8882 64.8082 44.4549 62.7242 39.3935C60.6388 34.3589 61.9202 27.2989 66.5535 24.4335C69.3082 22.7482 72.6455 22.8575 75.7615 22.5255C78.8788 22.1722 82.2575 21.0188 83.1668 17.9749C83.9508 15.3522 82.5322 12.1015 80.4082 10.0415C78.2842 7.98018 75.5788 6.89085 72.9415 5.97218C64.3402 2.96284 55.6615 1.07085 47.1722 0.409515C44.1135 0.168182 40.9668 0.116196 37.8988 1.61485C34.8268 3.10286 31.8508 6.57486 31.3788 10.0149C30.8135 14.1042 33.8215 16.3002 37.0028 17.2989C40.1788 18.2669 43.9175 18.7495 46.2228 21.4322C39.3682 24.1535 32.6548 27.5575 26.2002 31.6069C24.0015 32.9815 21.6922 34.6082 20.1775 37.1082C18.6655 39.6162 18.5202 43.0388 20.4402 43.2295C17.5082 44.9615 14.5668 46.9242 12.0668 49.8935C9.56551 52.8642 7.55484 57.0442 7.66017 60.0989C7.78551 63.7628 10.9029 64.6642 14.2429 63.9162C17.5749 63.1469 21.1708 61.0749 24.7708 59.8855C34.6988 56.5229 44.8295 60.8282 50.4855 69.7242C45.4228 67.1962 38.5948 69.4682 34.4642 74.7642C30.3282 80.0589 29.1095 87.5509 31.5188 92.4349C25.0588 93.6189 18.6122 95.4322 12.7882 99.8322C6.94952 104.222 1.75884 111.608 0.429508 118.496C-1.01716 125.975 2.30552 131.111 6.40819 135.238C10.4909 139.295 15.5855 143.215 17.8188 149.747C19.0242 153.271 19.3162 157.354 20.9749 160.668C23.9255 166.562 30.7029 169.111 37.3735 169.766C44.0362 170.402 50.9429 169.456 57.7095 170.347C61.0508 170.786 64.5348 171.803 66.8655 174.52C69.1975 177.239 69.8162 182.054 67.4002 184.667C64.3695 187.936 57.6522 187.569 57.4908 192.287C57.3748 195.667 61.2989 197.393 62.2429 200.617C64.8135 209.402 48.3335 210.92 45.3282 217.164C42.9375 222.086 43.2015 228.687 48.2242 231.029C59.2642 236.233 71.1495 221.441 75.7615 212.215C80.6322 202.32 90.0095 189.763 88.3015 177.876Z" fill="#D7D5D5"/>
</svg>
