<svg width="73" height="69" viewBox="0 0 73 69" fill="none" xmlns="http://www.w3.org/2000/svg">
<path opacity="0.2" d="M50.1488 61.2548C48.0274 60.7508 45.8274 60.2174 44.0448 58.5548C42.2661 56.8934 41.0208 53.7494 41.7448 50.9881C42.8061 46.9321 46.8447 46.5148 50.0434 46.3721C54.4101 46.1588 58.7048 45.0934 62.6554 43.4388C66.7461 41.6854 70.6754 39.1308 71.9261 34.5574C73.1661 30.0628 70.5328 22.3374 66.1274 20.6601C63.3741 19.6881 60.9888 21.5268 58.3594 22.3468C55.7341 23.1374 51.7768 21.9694 51.1914 18.2588C50.7221 15.2388 52.9021 12.8681 52.8034 9.8801C52.6848 6.0881 49.0354 3.40144 46.0168 3.48945C43.0034 3.55611 40.1181 5.23878 37.0901 5.15745C33.3074 5.06678 30.0541 2.27078 26.6448 0.797455C23.2314 -0.727882 18.6968 -0.178551 16.332 4.09745C14.5029 7.37878 14.4346 11.8228 12.0497 14.3254C9.27103 17.2068 5.83409 15.4281 2.95289 18.0188C-0.849775 21.5188 -0.830978 28.4401 2.11689 30.4081C5.08569 32.4254 9.52782 31.6708 13.6544 32.1121C17.7748 32.5121 22.3594 35.2254 22.9674 40.7708C23.2834 43.6241 22.4514 46.5534 22.3927 49.4454C22.2661 55.7214 25.8541 61.2894 30.0927 64.2961C30.0927 64.2974 30.0927 64.2961 30.0927 64.2974C33.7941 66.8854 39.3048 69.0268 43.5034 68.6174C45.3688 68.3934 52.1288 61.6868 50.1488 61.2548Z" fill="#D7D5D5"/>
</svg>
