<svg width="103" height="231" viewBox="0 0 103 231" fill="none" xmlns="http://www.w3.org/2000/svg">
<path opacity="0.2" d="M64.0539 224.172C63.0712 222.803 61.6606 221.888 60.2833 221.005C59.5019 220.504 58.5592 219.988 57.7312 220.388C57.2232 220.633 56.8899 221.173 56.6473 221.721C51.3366 233.852 70.1899 232.696 64.0539 224.172Z" fill="#D7D5D5"/>
<path opacity="0.2" d="M52.0728 195.105C54.2382 191.385 58.7061 190.42 62.6208 189.421C65.0915 188.785 67.5822 187.969 69.5395 186.307C71.4968 184.641 72.8368 181.966 72.3795 179.243C71.9755 176.835 70.2328 174.772 68.1928 173.6C66.1515 172.431 63.8382 172.038 61.5662 171.88C58.7635 171.679 55.5302 172.041 53.9368 174.528C53.1235 175.796 52.8635 177.453 51.8688 178.564C50.0635 180.58 46.9528 179.827 44.4675 180.697C40.9222 181.938 39.0568 186.464 39.3181 190.428C39.5808 194.396 41.4515 197.966 43.2715 201.417C44.6088 203.927 49.2702 213.968 51.9222 209.461C54.1355 205.716 49.3422 199.803 52.0728 195.105Z" fill="#D7D5D5"/>
<path opacity="0.2" d="M88.9756 163.688C91.2942 161.293 91.9382 156.912 89.7129 153.545C87.1729 149.699 82.4169 149.007 78.3449 149.007C77.4422 149.723 77.9076 151.431 78.7396 152.471C79.5716 153.511 80.7036 154.323 81.2636 155.535C85.1543 163.721 70.4502 158.109 72.7409 163.688C75.5462 170.095 86.3409 166.3 88.9756 163.688Z" fill="#D7D5D5"/>
<path opacity="0.2" d="M25.4947 138.22C25.0614 135.703 22.1547 134.495 19.912 135.94C18.596 137.808 18.5653 140.428 19.8413 141.795C21.116 143.165 23.7867 139.629 25.4947 138.22Z" fill="#D7D5D5"/>
<path opacity="0.2" d="M11.7255 93.5721C13.1935 91.1747 15.5882 89.6361 17.8548 88.9774C20.1188 88.3121 22.3535 88.3521 24.6535 88.1134C29.7922 87.5614 35.5309 85.4921 39.5762 81.3334C40.5789 80.2974 41.5296 78.7934 41.0002 77.5587C40.5349 76.4787 39.1348 76.2587 37.9828 76.6334C36.8335 77.0054 35.8042 77.8067 34.6895 78.3334C31.6282 79.7801 28.4002 79.0761 25.7069 78.1241C23.0149 77.1681 20.4162 75.9614 17.4349 76.5707C12.5855 77.5721 8.22549 82.9627 4.54149 87.9867C2.99483 90.0947 1.39221 92.4321 0.825542 94.7721C0.0708755 97.8827 1.37753 99.8481 2.68153 101.563C3.74953 102.967 4.92151 104.456 6.82684 104.652C13.7722 105.537 9.52154 97.2307 11.7255 93.5721Z" fill="#D7D5D5"/>
<path opacity="0.2" d="M73.3348 56.2348C79.0708 54.5388 85.4414 53.8255 91.0214 58.8228C93.1494 60.7175 94.9988 63.2415 97.0815 65.1508C99.1708 67.0468 101.732 68.2802 102.551 66.7588C103.476 65.0415 101.764 61.0042 99.9027 58.0042C92.7307 46.1842 81.6654 39.7122 70.8107 38.8868C68.8601 38.7055 66.8134 38.6948 65.2294 39.6962C63.6441 40.6988 62.7254 42.9922 63.7054 44.9175C64.3441 46.1708 65.6801 47.1882 65.8081 48.5441C66.0174 50.7148 63.2614 51.1068 61.2294 51.4121C58.2254 51.5442 45.3721 62.0828 50.8774 65.1495C54.0041 66.3562 70.5308 56.5135 73.3348 56.2348Z" fill="#D7D5D5"/>
<path opacity="0.2" d="M36.9494 15.5602C35.3708 14.2415 32.8601 14.3388 30.8028 15.7002C28.7441 17.0508 27.1854 19.5002 26.6161 21.8735C26.2134 23.5588 26.3348 25.3268 27.3922 26.1442C28.5882 27.0695 30.5468 26.5628 32.3095 26.1068C34.7068 25.4642 37.6708 25.6135 38.7361 22.7522C38.9201 22.2455 37.2214 15.7775 36.9494 15.5602Z" fill="#D7D5D5"/>
<path opacity="0.2" d="M68.3476 0.930728C68.3463 0.930728 68.3462 0.930728 68.3462 0.930728C68.1169 1.00273 67.8996 1.10139 67.6943 1.22806C63.7756 3.72273 67.7183 6.35873 70.733 5.16139C74.5676 3.73206 72.5449 -0.350605 68.3476 0.930728Z" fill="#D7D5D5"/>
</svg>
