<svg width="115" height="231" viewBox="0 0 115 231" fill="none" xmlns="http://www.w3.org/2000/svg">
<path opacity="0.2" d="M86.0454 208.976C86.0454 208.978 86.0454 208.978 86.0454 208.976C92.1787 203.071 98.9334 195.707 97.1961 186.888C95.8814 180.185 90.1121 175.5 84.7601 171.68C79.3787 167.829 73.9534 164.067 68.5027 160.464C64.8405 158.044 61.1634 155.695 57.3618 153.701C54.4238 152.156 51.2535 150.699 49.5045 147.768C48.6077 146.264 48.1598 144.457 48.0478 142.621C47.6541 136.237 51.3321 129.751 56.2926 125.917C61.2487 122.081 67.3027 120.605 73.2361 120.155C81.0587 119.551 88.9947 120.513 96.4507 119.743C103.924 118.928 111.087 116.159 113.885 109.648C116.668 103.201 113.524 91.6548 106.223 87.3308C103.723 85.8921 101.04 85.4948 98.4761 84.2508C95.9161 83.0001 93.2654 80.3001 93.3921 77.4521C93.5254 74.5348 96.3747 73.2321 97.1734 70.6561C98.5374 66.2668 93.7734 61.0535 89.6654 57.8588C85.5707 54.6321 80.7894 49.6121 82.6441 45.2148C84.2627 41.3761 89.4267 42.0068 93.4707 43.0841C97.5321 44.0815 102.647 44.3321 102.911 40.1855C103.127 36.8855 99.8921 33.2161 96.7801 31.5561C93.6721 29.8801 90.2641 29.2708 87.3574 27.1348C83.2907 24.1628 81.4014 18.9454 78.6521 14.6828C72.5387 5.14278 61.6722 1.11746 51.5697 0.500137C44.6754 -0.0105286 37.6545 0.678802 31.0487 4.50146C24.4186 8.27747 18.2645 15.7121 15.4681 23.6788C14.2607 27.1055 13.7279 30.7441 15.0274 32.5668C16.9353 35.2401 21.6645 33.1561 25.7978 31.9241C29.905 30.6108 35.0654 31.1121 35.3217 35.6628C28.4878 39.4148 21.8629 43.8375 15.5618 48.8761C10.9774 52.5081 6.36287 56.9135 3.33993 62.7294C-0.656868 70.5054 -0.931401 78.4001 1.79567 82.3361C4.5358 86.2841 9.94353 87.1628 15.9795 86.7455C21.9983 86.2961 28.6295 84.5615 35.3347 83.3761C34.1811 88.0401 34.5691 92.7641 36.4025 96.5055C26.3779 102.848 17.8765 112.875 11.7806 123.796C8.73006 129.265 6.1858 135.239 6.165 140.631C6.14153 146.284 8.90086 150.579 11.6509 154.864C15.5191 160.875 19.7071 167.438 26.3571 170.927C30.6082 173.153 35.7878 174.093 39.2363 177.875C41.6987 180.576 43.0811 184.523 46.0541 186.626C48.8659 188.619 52.4883 188.556 55.8389 189.175C59.1894 189.79 62.8702 191.711 63.6175 195.421C64.6577 200.595 59.4066 204.569 54.8025 205.8C48.365 207.507 40.7634 208.776 40.7821 217.887C40.7931 223.887 44.153 228.266 49.3145 229.552C63.1618 233.041 76.6854 217.869 86.0454 208.976Z" fill="#D7D5D5"/>
</svg>
