<svg width="111" height="219" viewBox="0 0 111 219" fill="none" xmlns="http://www.w3.org/2000/svg">
<path opacity="0.2" d="M83.5261 199.927C85.8661 191.077 81.6434 180.235 73.8594 175.519C70.6341 173.587 66.9834 172.72 63.7581 170.834C60.5341 168.942 57.6101 165.459 57.9474 161.508C58.2754 157.645 61.6234 154.255 60.6394 150.519C60.1208 148.541 58.4714 147.097 57.8834 145.149C57.1208 142.627 58.3847 139.792 60.3261 138.213C62.2647 136.633 64.7381 136.074 67.1421 135.735C73.5568 134.822 80.1768 135.137 86.0341 133.409C91.9048 131.64 97.0048 127.255 96.8581 120.495C96.7075 109.063 82.5128 98.1362 83.3834 86.9548C83.8528 81.3588 88.1461 77.8615 92.5741 76.4522C97.0114 75.0068 101.853 75.0868 105.525 73.4868C109.202 71.8575 111.573 67.7482 109.713 61.6042C107.083 52.5375 97.6501 46.9615 92.2074 39.2429C88.3887 33.6322 87.4554 26.9762 84.3594 21.0509C79.9688 12.6095 71.6861 7.42818 63.7728 4.29617C56.5381 1.35352 49.1088 -0.681137 41.5941 0.212189C34.0661 1.0562 26.4128 5.29218 20.9141 12.4855C15.4088 19.6962 12.3541 29.5401 14.2328 35.7001C15.4928 39.8241 18.8421 43.5508 16.5421 48.8962C14.6314 53.2895 10.1754 55.7562 6.99008 59.4762C0.972744 66.5828 -0.607224 76.9362 1.85544 82.3642C4.34744 87.8508 10.1261 90.0375 16.4434 91.8322C18.7634 92.4682 21.4874 93.4575 21.8127 96.2922C22.0447 98.3202 20.9181 100.567 19.8808 102.621C14.0541 114.175 9.4234 126.464 8.67673 138.023C7.94073 149.617 11.6754 160.631 20.4648 166.351C24.6501 169.057 29.8914 170.584 33.1648 174.834C35.8554 178.328 36.8034 183.097 38.5274 187.359C40.2554 191.624 43.4047 195.861 47.7101 196.111C42.7927 200.196 41.8248 208.88 45.6554 214.052C54.7621 226.361 80.3261 211.696 83.5261 199.927Z" fill="#D7D5D5"/>
</svg>
