<svg width="113" height="238" viewBox="0 0 113 238" fill="none" xmlns="http://www.w3.org/2000/svg">
<path opacity="0.2" d="M68.8181 234.919C69.7487 232.99 69.0274 230.512 67.702 228.895C66.3767 227.279 64.5634 226.292 62.8727 225.167C58.9821 222.576 55.4501 218.891 53.9888 214.124C52.5288 209.36 53.6327 203.396 57.4087 200.521C61.0301 197.761 66.5581 198.031 68.8661 193.971C70.8394 190.508 68.9234 185.471 65.5981 183.476C62.2754 181.484 58.1514 182.015 54.6581 183.602C51.1621 185.185 48.0687 187.697 44.7447 189.704C42.3501 191.149 39.5474 192.717 38.8687 195.592C37.9394 199.531 41.5487 202.579 44.402 205.093C48.1234 208.36 51.2394 212.515 53.5154 217.19C54.3034 218.807 55.0047 220.547 55.0354 222.39C55.0687 224.232 54.2874 226.199 52.7901 226.978C51.5421 227.626 50.0234 227.375 48.8061 228.09C42.6367 231.693 51.65 236.791 54.4687 237.033C57.982 237.316 66.9074 238.89 68.8181 234.919Z" fill="#D7D5D5"/>
<path opacity="0.2" d="M86.5028 168.404C88.5535 165.152 89.0895 160.588 87.2428 156.777C85.8548 153.924 83.3242 151.817 80.6642 150.395C75.1722 147.437 68.7415 147.059 63.1828 149.435C62.1801 149.86 61.1415 150.436 60.6441 151.475C59.6975 153.455 61.3188 155.893 63.2508 156.675C65.1802 157.457 67.3068 157.203 69.3468 157.487C71.3855 157.765 73.6441 158.912 74.2161 161.075C74.7175 162.964 73.6709 164.925 72.2002 165.96C70.7295 166.992 68.9175 167.311 67.1615 167.631C59.6242 169.069 57.1015 178.2 66.2922 177.481C73.3469 176.969 82.5228 174.681 86.5028 168.404Z" fill="#D7D5D5"/>
<path opacity="0.2" d="M31.4383 138.416C31.4383 138.416 31.4383 138.416 31.437 138.416C30.5023 138.127 29.4357 138.112 28.4277 138.396C27.3584 138.697 26.3544 139.333 25.633 140.32C16.1384 152.781 48.025 143.711 31.4383 138.416Z" fill="#D7D5D5"/>
<path opacity="0.2" d="M20.218 112.094C21.042 110.202 20.934 108.227 20.6927 106.439C20.4514 104.652 20.0993 102.856 20.5047 100.902C21.5327 95.8682 26.8194 92.3748 31.4167 91.0628C35.9967 89.6975 41.2513 89.0655 44.638 85.1962C46.0967 83.5215 47.0287 81.1522 46.4661 79.1348C45.6421 76.1762 42.094 75.3508 39.1687 76.2748C36.2393 77.1868 33.566 79.2762 30.7207 80.5655C26.3967 82.5268 22.0593 82.5748 17.9793 83.0375C13.8967 83.4802 9.67001 84.5349 5.91535 87.9922C2.15535 91.4615 -0.857973 97.8322 0.231361 101.252C0.812694 103.082 2.406 103.819 3.47133 105.259C4.70733 106.93 5.17406 109.447 5.79673 111.791C6.42073 114.14 7.29135 116.455 9.15402 117.56C11.69 119.02 18.3313 116.335 20.218 112.094Z" fill="#D7D5D5"/>
<path opacity="0.2" d="M82.9665 69.4454C82.9665 69.4454 82.9665 69.4454 82.9678 69.4454C90.7958 73.3561 98.8078 80.7268 105.652 80.3828C109.034 80.2188 111.45 77.9735 111.974 74.3228C112.49 70.6841 111.137 65.6441 108.413 61.4641C104.742 55.8041 99.2865 52.7748 94.1839 49.5721C89.0385 46.3095 84.0892 42.3654 78.7852 39.6134C73.4825 36.8534 67.5012 35.4254 62.2585 37.5508C57.9039 39.3001 54.2079 44.6268 55.9759 49.0614C56.6079 50.6534 57.8638 51.9814 58.1492 53.7014C58.5318 55.9988 57.0399 58.2454 55.2399 59.6961C53.4399 61.1441 51.3051 62.0934 49.4691 63.5681C46.9478 65.6001 44.2945 70.8321 47.9225 72.7281C50.5332 74.1134 54.0185 70.9468 56.3358 69.7988C64.7958 65.5361 74.1492 65.0268 82.9665 69.4454Z" fill="#D7D5D5"/>
<path opacity="0.2" d="M42.082 18.9415C41.626 17.0322 39.518 16.4349 37.6153 16.5055C30.274 16.7375 23.05 22.9549 17.0126 29.8429C15.4313 31.6349 13.7793 33.7402 13.2087 35.9376C12.234 39.6949 15.0406 41.1349 18.026 40.5882C22.3753 39.7549 27.2993 36.9189 32.0313 36.4242C35.594 36.0456 39.3047 36.6896 43.0647 34.6176C45.8447 33.0922 47.2807 32.3762 46.4327 29.4002C45.9834 27.8202 43.3606 27.3096 42.6406 25.8562C41.482 23.5096 42.6646 21.3802 42.082 18.9415Z" fill="#D7D5D5"/>
<path opacity="0.2" d="M82.212 7.36285C81.9107 5.20952 79.708 3.60683 77.7933 2.5415C77.3227 2.27883 76.8507 2.01883 76.372 1.77216C74.6947 0.909493 72.9654 0.218826 71.22 0.204159C71.22 0.204159 71.22 0.204159 71.2187 0.204159C56.34 0.153493 84.1854 19.1589 82.212 7.36285Z" fill="#D7D5D5"/>
</svg>
