<svg width="133" height="216" viewBox="0 0 133 216" fill="none" xmlns="http://www.w3.org/2000/svg">
<path opacity="0.2" d="M83.0302 206.844C86.0662 203.758 87.8142 198.567 85.9742 194.376C84.0395 189.959 78.9715 188.155 76.9542 183.764C75.0182 179.542 76.6902 174.167 79.7382 171.038C82.7849 167.907 86.8889 166.527 90.8396 165.315C94.7902 164.098 98.8569 162.887 101.824 160.052C105.204 156.819 106.754 151.563 105.828 146.335C104.898 141.119 101.51 136.04 97.0769 133.495C94.5675 132.056 91.7876 131.426 89.3422 129.844C86.9036 128.254 82.4822 122.018 83.1955 119.155C83.6942 117.134 86.4676 107.726 88.2422 108.782C111.378 123.051 108.03 107.826 118.4 107.519C122.328 107.567 126.446 108.351 129.422 106.956C132.397 105.555 133.657 100.827 130.929 96.2255C128.554 92.1802 123.614 89.4242 123.056 85.3069C122.836 83.6322 123.533 82.4509 123.773 81.0175C124.469 76.8682 121.194 70.8122 117.321 67.1815C113.453 63.5562 109.024 61.7362 104.677 59.5469C103.157 58.7735 101.504 57.8242 100.548 56.1909C98.6956 53.0389 100.8 49.7442 103.341 48.8682C105.884 47.9776 108.992 48.2535 110.677 46.3469C113.02 43.7162 111.436 37.5229 108.264 33.2522C105.089 28.9989 100.777 26.4375 96.5582 24.4522C92.3462 22.4415 87.8662 20.7082 84.2556 17.3855C80.4329 13.8829 78.0995 8.86417 74.3795 5.42284C68.8289 0.278839 61.1555 -0.0904541 54.1182 0.660217C48.7489 1.13754 42.2635 3.31621 40.2649 9.03221C39.2609 11.8696 39.7315 14.7842 38.8409 17.6402C37.1209 23.1229 31.2995 26.3349 26.4622 28.3495C21.6049 30.2935 16.4422 32.3122 12.7916 37.3975C7.88225 44.3215 8.08222 52.9375 11.5369 56.9002C15.0076 60.8869 20.9196 61.8509 26.7729 63.3482C22.3142 67.9455 16.8489 70.5295 11.9663 74.3015C7.06359 78.0389 2.16491 83.9655 1.08624 89.8802C0.0902406 95.3282 2.81824 98.9562 6.7169 100.13C10.6076 101.279 15.4543 100.45 20.2636 99.7255C25.0689 98.9949 30.1062 98.3855 34.5969 99.9962C38.9516 101.54 42.8089 106.967 40.3449 111.896C38.7729 115.044 35.4275 116.468 32.7102 118.487C27.4995 122.359 23.9742 129.182 23.6409 135.6C23.3089 142.035 26.1822 147.971 30.9982 151.059C33.9249 152.93 37.4502 153.775 40.3129 155.947C43.1769 158.114 45.3009 162.392 43.7529 166.083C42.6782 168.651 40.0329 170.503 39.9075 173.28C39.7982 175.642 41.6022 177.443 42.1969 179.691C43.1849 183.424 40.7502 187.21 39.6222 190.955C37.0729 199.41 41.7649 208.914 48.7235 213.032C58.7049 218.92 74.7022 215.286 83.0302 206.844Z" fill="#D7D5D5"/>
</svg>
