<svg width="152" height="198" viewBox="0 0 152 198" fill="none" xmlns="http://www.w3.org/2000/svg">
<path opacity="0.2" d="M89.7587 187C90.912 183.722 90.676 179.878 92.04 176.724C93.7827 172.695 97.636 170.825 100.872 168.512C104.108 166.184 107.221 162.119 106.069 157.784C104.977 153.663 100.841 151.983 97.5334 149.994C94.2307 148.002 91.0174 143.075 93.2947 139.766C94.568 137.92 96.9107 137.786 98.9654 137.952C105.411 138.467 112.692 140.206 117.361 135.791C119.545 133.728 120.776 130.552 123.053 128.737C126.693 125.845 131.888 127.17 136.425 127.202C144.864 127.138 152.216 121.669 151.757 112.436C151.333 103.619 144.385 93.5842 136.653 88.0682C128.937 82.5575 120.379 80.7148 111.86 78.4949C108.799 77.6735 104.951 75.9322 104.467 72.3588C103.905 68.2042 108.347 66.5722 111.832 66.4362C117.893 66.1562 123.876 66.2749 129.721 66.8309C135.201 67.2975 141.409 67.7682 142.823 62.5828C144.32 57.1188 139.471 48.6642 134.42 43.0629C124.347 31.7922 111.424 25.1628 99.0374 26.2495C100.413 22.2175 98.62 17.0042 95.6694 13.4668C92.7187 9.93083 88.804 7.79085 84.972 5.94151C76.82 1.98018 68.224 -1.22783 59.564 0.902832C50.88 2.97084 42.2854 12.0122 41.172 21.7349C31.18 19.5042 19.816 24.6829 10.8414 34.7908C5.33737 40.9069 0.222699 50.1255 0.616032 56.4375C0.932032 61.5468 4.77871 63.1148 8.74271 64.2442C13.584 65.5842 18.9507 66.6895 24.708 67.5215C27.2707 67.8762 30.4174 68.9295 30.1934 72.2255C29.9627 75.5722 26.476 77.9028 23.7027 79.4442C15.844 83.7068 7.35071 90.8922 4.92537 100.054C2.72271 108.286 6.73604 114.633 12.64 117.269C18.532 119.848 25.8934 119.487 33.1014 119.694C35.3014 119.756 37.584 119.901 39.4427 121.109C41.3 122.315 42.6214 124.879 42.0027 127.455C41.1494 130.992 37.54 132.503 34.8174 134.498C27.2934 140.1 25.1587 153.139 30.664 159.881C34.148 164.177 39.5867 165.81 43.9347 169.29C48.52 172.959 51.7533 178.552 55.2187 183.802C58.6853 189.052 62.708 194.275 68.0213 196.53C72.2187 198.311 76.4947 197.455 80.1947 194.677C82.852 192.676 88.5427 190.452 89.7587 187Z" fill="#D7D5D5"/>
</svg>
